{"asset":{"version":"2.0","generator":"Blockbench 4.8.3 glTF exporter"},"scenes":[{"nodes":[12],"name":"blockbench_export"}],"scene":0,"nodes":[{"name":"torus","mesh":0},{"name":"cylinder","mesh":1},{"name":"sphere","mesh":2},{"name":"torus","mesh":3},{"name":"cylinder","mesh":4},{"name":"cylinder","mesh":5},{"name":"cylinder","mesh":6},{"name":"cylinder","mesh":7},{"name":"cylinder","mesh":8},{"name":"cylinder","mesh":9},{"name":"cylinder","mesh":10},{"name":"cylinder","mesh":11},{"children":[0,1,2,3,4,5,6,7,8,9,10,11]}],"bufferViews":[{"buffer":0,"byteOffset":0,"byteLength":4608,"target":34962,"byteStride":12},{"buffer":0,"byteOffset":4608,"byteLength":4608,"target":34962,"byteStride":12},{"buffer":0,"byteOffset":9216,"byteLength":3072,"target":34962,"byteStride":8},{"buffer":0,"byteOffset":12288,"byteLength":1152,"target":34963},{"buffer":0,"byteOffset":13440,"byteLength":2808,"target":34962,"byteStride":12},{"buffer":0,"byteOffset":16248,"byteLength":2808,"target":34962,"byteStride":12},{"buffer":0,"byteOffset":19056,"byteLength":1872,"target":34962,"byteStride":8},{"buffer":0,"byteOffset":20928,"byteLength":648,"target":34963},{"buffer":0,"byteOffset":21576,"byteLength":3432,"target":34962,"byteStride":12},{"buffer":0,"byteOffset":25008,"byteLength":3432,"target":34962,"byteStride":12},{"buffer":0,"byteOffset":28440,"byteLength":2288,"target":34962,"byteStride":8},{"buffer":0,"byteOffset":30728,"byteLength":804,"target":34963},{"buffer":0,"byteOffset":31532,"byteLength":4608,"target":34962,"byteStride":12},{"buffer":0,"byteOffset":36140,"byteLength":4608,"target":34962,"byteStride":12},{"buffer":0,"byteOffset":40748,"byteLength":3072,"target":34962,"byteStride":8},{"buffer":0,"byteOffset":43820,"byteLength":1152,"target":34963},{"buffer":0,"byteOffset":44972,"byteLength":2808,"target":34962,"byteStride":12},{"buffer":0,"byteOffset":47780,"byteLength":2808,"target":34962,"byteStride":12},{"buffer":0,"byteOffset":50588,"byteLength":1872,"target":34962,"byteStride":8},{"buffer":0,"byteOffset":52460,"byteLength":648,"target":34963},{"buffer":0,"byteOffset":53108,"byteLength":2376,"target":34962,"byteStride":12},{"buffer":0,"byteOffset":55484,"byteLength":2376,"target":34962,"byteStride":12},{"buffer":0,"byteOffset":57860,"byteLength":1584,"target":34962,"byteStride":8},{"buffer":0,"byteOffset":59444,"byteLength":540,"target":34963},{"buffer":0,"byteOffset":59984,"byteLength":2616,"target":34962,"byteStride":12},{"buffer":0,"byteOffset":62600,"byteLength":2616,"target":34962,"byteStride":12},{"buffer":0,"byteOffset":65216,"byteLength":1744,"target":34962,"byteStride":8},{"buffer":0,"byteOffset":66960,"byteLength":600,"target":34963},{"buffer":0,"byteOffset":67560,"byteLength":2760,"target":34962,"byteStride":12},{"buffer":0,"byteOffset":70320,"byteLength":2760,"target":34962,"byteStride":12},{"buffer":0,"byteOffset":73080,"byteLength":1840,"target":34962,"byteStride":8},{"buffer":0,"byteOffset":74920,"byteLength":636,"target":34963},{"buffer":0,"byteOffset":75556,"byteLength":3048,"target":34962,"byteStride":12},{"buffer":0,"byteOffset":78604,"byteLength":3048,"target":34962,"byteStride":12},{"buffer":0,"byteOffset":81652,"byteLength":2032,"target":34962,"byteStride":8},{"buffer":0,"byteOffset":83684,"byteLength":708,"target":34963},{"buffer":0,"byteOffset":84392,"byteLength":3144,"target":34962,"byteStride":12},{"buffer":0,"byteOffset":87536,"byteLength":3144,"target":34962,"byteStride":12},{"buffer":0,"byteOffset":90680,"byteLength":2096,"target":34962,"byteStride":8},{"buffer":0,"byteOffset":92776,"byteLength":732,"target":34963},{"buffer":0,"byteOffset":93508,"byteLength":2376,"target":34962,"byteStride":12},{"buffer":0,"byteOffset":95884,"byteLength":2376,"target":34962,"byteStride":12},{"buffer":0,"byteOffset":98260,"byteLength":1584,"target":34962,"byteStride":8},{"buffer":0,"byteOffset":99844,"byteLength":540,"target":34963},{"buffer":0,"byteOffset":100384,"byteLength":2376,"target":34962,"byteStride":12},{"buffer":0,"byteOffset":102760,"byteLength":2376,"target":34962,"byteStride":12},{"buffer":0,"byteOffset":105136,"byteLength":1584,"target":34962,"byteStride":8},{"buffer":0,"byteOffset":106720,"byteLength":540,"target":34963}],"buffers":[{"byteLength":107260,"uri":"data:application/octet-stream;base64,"}],"accessors":[{"bufferView":0,"componentType":5126,"count":384,"max":[0.21875,0.0647047609090805,0.21875],"min":[-0.21875,-0.0647047609090805,-0.21875],"type":"VEC3"},{"bufferView":1,"componentType":5126,"count":384,"max":[0.9284448027610779,0.919060468673706,0.9284448027610779],"min":[-0.9284448027610779,-0.919060468673706,-0.9284448027610779],"type":"VEC3"},{"bufferView":2,"componentType":5126,"count":384,"max":[0.8100731372833252,0.8125],"min":[0.0017306468216702342,0],"type":"VEC2"},{"bufferView":3,"componentType":5123,"count":576,"max":[383],"min":[0],"type":"SCALAR"},{"bufferView":4,"componentType":5126,"count":234,"max":[-0.12512433528900146,0.2774146795272827,0.03534336015582085],"min":[-0.25029996037483215,-0.03125,-0.03935446962714195],"type":"VEC3"},{"bufferView":5,"componentType":5126,"count":234,"max":[0.9842889904975891,0.9511030912399292,1],"min":[-0.9966145753860474,-0.9231189489364624,-0.941561222076416],"type":"VEC3"},{"bufferView":6,"componentType":5126,"count":234,"max":[0.8042734265327454,0.8577668070793152],"min":[0,0.0625],"type":"VEC2"},{"bufferView":7,"componentType":5123,"count":324,"max":[233],"min":[0],"type":"SCALAR"},{"bufferView":8,"componentType":5126,"count":286,"max":[-0.20947758853435516,0.28153178095817566,0.029720516875386238],"min":[-0.34050115942955017,0.20882843434810638,-0.03162791207432747],"type":"VEC3"},{"bufferView":9,"componentType":5126,"count":286,"max":[0.9902899861335754,0.9957969784736633,1],"min":[-0.9931113719940186,-0.9742420315742493,-0.9766813516616821],"type":"VEC3"},{"bufferView":10,"componentType":5126,"count":286,"max":[0.8203125,0.8134379982948303],"min":[0.06612280011177063,0.1875],"type":"VEC2"},{"bufferView":11,"componentType":5123,"count":402,"max":[285],"min":[0],"type":"SCALAR"},{"bufferView":12,"componentType":5126,"count":384,"max":[0.21875,0.0647047609090805,0.21875],"min":[-0.21875,-0.0647047609090805,-0.21875],"type":"VEC3"},{"bufferView":13,"componentType":5126,"count":384,"max":[0.9284448027610779,0.919060468673706,0.9284448027610779],"min":[-0.9284448027610779,-0.919060468673706,-0.9284448027610779],"type":"VEC3"},{"bufferView":14,"componentType":5126,"count":384,"max":[0.8100731372833252,0.8125],"min":[0.0017306468216702342,0],"type":"VEC2"},{"bufferView":15,"componentType":5123,"count":576,"max":[383],"min":[0],"type":"SCALAR"},{"bufferView":16,"componentType":5126,"count":234,"max":[-0.09387434273958206,0.2774146795272827,0.05937499925494194],"min":[-0.25029996037483215,-0.03125,-0.06338611245155334],"type":"VEC3"},{"bufferView":17,"componentType":5126,"count":234,"max":[0.9847847819328308,0.9511030912399292,1],"min":[-0.9966145753860474,-0.9231189489364624,-0.941561222076416],"type":"VEC3"},{"bufferView":18,"componentType":5126,"count":234,"max":[0.8042734265327454,0.8577668070793152],"min":[0,0.0625],"type":"VEC2"},{"bufferView":19,"componentType":5123,"count":324,"max":[233],"min":[0],"type":"SCALAR"},{"bufferView":20,"componentType":5126,"count":198,"max":[-0.1063743457198143,0.2774146795272827,0.046875],"min":[-0.25029996037483215,-0.03125,-0.050886109471321106],"type":"VEC3"},{"bufferView":21,"componentType":5126,"count":198,"max":[0.9423753023147583,0.9511030912399292,1],"min":[-0.9966145753860474,-1,-0.941561222076416],"type":"VEC3"},{"bufferView":22,"componentType":5126,"count":198,"max":[0.8042734265327454,0.828125],"min":[0,0.0625],"type":"VEC2"},{"bufferView":23,"componentType":5123,"count":270,"max":[197],"min":[0],"type":"SCALAR"},{"bufferView":24,"componentType":5126,"count":218,"max":[-0.1063743457198143,0.2774146795272827,0.046875],"min":[-0.25029996037483215,-0.03125,-0.050886109471321106],"type":"VEC3"},{"bufferView":25,"componentType":5126,"count":218,"max":[0.9846632480621338,0.9511030912399292,1],"min":[-0.9966145753860474,-1,-0.941561222076416],"type":"VEC3"},{"bufferView":26,"componentType":5126,"count":218,"max":[0.8042734265327454,0.8577668070793152],"min":[0,0.0625],"type":"VEC2"},{"bufferView":27,"componentType":5123,"count":300,"max":[217],"min":[0],"type":"SCALAR"},{"bufferView":28,"componentType":5126,"count":230,"max":[-0.1063743457198143,0.2774146795272827,0.046875],"min":[-0.25029996037483215,-0.03125,-0.050886109471321106],"type":"VEC3"},{"bufferView":29,"componentType":5126,"count":230,"max":[0.9846632480621338,0.9511030912399292,1],"min":[-0.9966145753860474,-1,-0.941561222076416],"type":"VEC3"},{"bufferView":30,"componentType":5126,"count":230,"max":[0.8042734265327454,0.8577668070793152],"min":[0,0.0625],"type":"VEC2"},{"bufferView":31,"componentType":5123,"count":318,"max":[229],"min":[0],"type":"SCALAR"},{"bufferView":32,"componentType":5126,"count":254,"max":[-0.09387434273958206,0.2774146795272827,0.05937499925494194],"min":[-0.25029996037483215,-0.03125,-0.06338611245155334],"type":"VEC3"},{"bufferView":33,"componentType":5126,"count":254,"max":[0.9847847819328308,0.9511030912399292,1],"min":[-0.9966145753860474,-0.9231189489364624,-0.941561222076416],"type":"VEC3"},{"bufferView":34,"componentType":5126,"count":254,"max":[0.8042734265327454,0.8577668070793152],"min":[0,0.0625],"type":"VEC2"},{"bufferView":35,"componentType":5123,"count":354,"max":[253],"min":[0],"type":"SCALAR"},{"bufferView":36,"componentType":5126,"count":262,"max":[-0.09387434273958206,0.2774146795272827,0.05937499925494194],"min":[-0.25029996037483215,-0.03125,-0.06338611245155334],"type":"VEC3"},{"bufferView":37,"componentType":5126,"count":262,"max":[0.9847847819328308,0.9511030912399292,1],"min":[-0.9966145753860474,-0.9231189489364624,-0.941561222076416],"type":"VEC3"},{"bufferView":38,"componentType":5126,"count":262,"max":[0.8042734265327454,0.8577668070793152],"min":[0,0.0625],"type":"VEC2"},{"bufferView":39,"componentType":5123,"count":366,"max":[261],"min":[0],"type":"SCALAR"},{"bufferView":40,"componentType":5126,"count":198,"max":[-0.1063743457198143,0.2774146795272827,0.046875],"min":[-0.25029996037483215,-0.03125,-0.050886109471321106],"type":"VEC3"},{"bufferView":41,"componentType":5126,"count":198,"max":[0.9423753023147583,0.9511030912399292,1],"min":[-0.9966145753860474,-1,-0.941561222076416],"type":"VEC3"},{"bufferView":42,"componentType":5126,"count":198,"max":[0.8042734265327454,0.828125],"min":[0,0.0625],"type":"VEC2"},{"bufferView":43,"componentType":5123,"count":270,"max":[197],"min":[0],"type":"SCALAR"},{"bufferView":44,"componentType":5126,"count":198,"max":[-0.1063743457198143,0.2774146795272827,0.046875],"min":[-0.25029996037483215,-0.03125,-0.050886109471321106],"type":"VEC3"},{"bufferView":45,"componentType":5126,"count":198,"max":[0.9423753023147583,0.9511030912399292,1],"min":[-0.9966145753860474,-1,-0.941561222076416],"type":"VEC3"},{"bufferView":46,"componentType":5126,"count":198,"max":[0.8042734265327454,0.828125],"min":[0,0.0625],"type":"VEC2"},{"bufferView":47,"componentType":5123,"count":270,"max":[197],"min":[0],"type":"SCALAR"}],"materials":[{"pbrMetallicRoughness":{"metallicFactor":0,"roughnessFactor":1,"baseColorTexture":{"index":0}},"alphaMode":"MASK","alphaCutoff":0.05,"doubleSided":true}],"textures":[{"sampler":0,"source":0,"name":"texture_boia4.png"}],"samplers":[{"magFilter":9728,"minFilter":9728,"wrapS":33071,"wrapT":33071}],"images":[{"mimeType":"image/png","uri":"data:image/png;base64,"}],"meshes":[{"primitives":[{"mode":4,"attributes":{"POSITION":0,"NORMAL":1,"TEXCOORD_0":2},"indices":3,"material":0}]},{"primitives":[{"mode":4,"attributes":{"POSITION":4,"NORMAL":5,"TEXCOORD_0":6},"indices":7,"material":0}]},{"primitives":[{"mode":4,"attributes":{"POSITION":8,"NORMAL":9,"TEXCOORD_0":10},"indices":11,"material":0}]},{"primitives":[{"mode":4,"attributes":{"POSITION":12,"NORMAL":13,"TEXCOORD_0":14},"indices":15,"material":0}]},{"primitives":[{"mode":4,"attributes":{"POSITION":16,"NORMAL":17,"TEXCOORD_0":18},"indices":19,"material":0}]},{"primitives":[{"mode":4,"attributes":{"POSITION":20,"NORMAL":21,"TEXCOORD_0":22},"indices":23,"material":0}]},{"primitives":[{"mode":4,"attributes":{"POSITION":24,"NORMAL":25,"TEXCOORD_0":26},"indices":27,"material":0}]},{"primitives":[{"mode":4,"attributes":{"POSITION":28,"NORMAL":29,"TEXCOORD_0":30},"indices":31,"material":0}]},{"primitives":[{"mode":4,"attributes":{"POSITION":32,"NORMAL":33,"TEXCOORD_0":34},"indices":35,"material":0}]},{"primitives":[{"mode":4,"attributes":{"POSITION":36,"NORMAL":37,"TEXCOORD_0":38},"indices":39,"material":0}]},{"primitives":[{"mode":4,"attributes":{"POSITION":40,"NORMAL":41,"TEXCOORD_0":42},"indices":43,"material":0}]},{"primitives":[{"mode":4,"attributes":{"POSITION":44,"NORMAL":45,"TEXCOORD_0":46},"indices":47,"material":0}]}]}