{"asset":{"version":"2.0","generator":"Blockbench 4.8.3 glTF exporter"},"scenes":[{"nodes":[2],"name":"blockbench_export"}],"scene":0,"nodes":[{"name":"Object_4","mesh":0},{"name":"bone","children":[0]},{"children":[1]}],"bufferViews":[{"buffer":0,"byteOffset":0,"byteLength":22536,"target":34962,"byteStride":12},{"buffer":0,"byteOffset":22536,"byteLength":22536,"target":34962,"byteStride":12},{"buffer":0,"byteOffset":45072,"byteLength":15024,"target":34962,"byteStride":8},{"buffer":0,"byteOffset":60096,"byteLength":3756,"target":34963}],"buffers":[{"byteLength":63852,"uri":"data:application/octet-stream;base64,"}],"accessors":[{"bufferView":0,"componentType":5126,"count":1878,"max":[-0.04332243651151657,0.5040637850761414,0.5928694605827332],"min":[-0.29482555389404297,0.020703187212347984,-0.08836743980646133],"type":"VEC3"},{"bufferView":1,"componentType":5126,"count":1878,"max":[0.9990430474281311,1,0.9853743314743042],"min":[-0.9990430474281311,-0.9993745684623718,-0.9776409268379211],"type":"VEC3"},{"bufferView":2,"componentType":5126,"count":1878,"max":[0.65625,0.6446641087532043],"min":[0,0],"type":"VEC2"},{"bufferView":3,"componentType":5123,"count":1878,"max":[1877],"min":[0],"type":"SCALAR"}],"materials":[{"pbrMetallicRoughness":{"metallicFactor":0,"roughnessFactor":1,"baseColorTexture":{"index":0}},"alphaMode":"MASK","alphaCutoff":0.05,"doubleSided":true}],"textures":[{"sampler":0,"source":0,"name":"pelo capybara"}],"samplers":[{"magFilter":9728,"minFilter":9728,"wrapS":33071,"wrapT":33071}],"images":[{"mimeType":"image/png","uri":"data:image/png;base64,"}],"meshes":[{"primitives":[{"mode":4,"attributes":{"POSITION":0,"NORMAL":1,"TEXCOORD_0":2},"indices":3,"material":0}]}]}