{"asset":{"version":"2.0","generator":"Blockbench 4.8.3 glTF exporter"},"scenes":[{"nodes":[6],"name":"blockbench_export"}],"scene":0,"nodes":[{"name":"Ground","mesh":0},{"rotation":[0.49999998352056946,-0.49999998489937975,0.5000000164794346,0.5000000151006153],"name":"Ceiling","mesh":1},{"rotation":[0,-0.7071067811865475,0,0.7071067811865476],"name":"LampGrid1","mesh":2},{"rotation":[0,-0.7071067811865475,0,0.7071067811865476],"name":"LampGrid2","mesh":3},{"rotation":[0,-0.7071067811865475,0,0.7071067811865476],"name":"LampGrid3","mesh":4},{"name":"Walls","mesh":5},{"children":[0,1,2,3,4,5]}],"bufferViews":[{"buffer":0,"byteOffset":0,"byteLength":672,"target":34962,"byteStride":12},{"buffer":0,"byteOffset":672,"byteLength":672,"target":34962,"byteStride":12},{"buffer":0,"byteOffset":1344,"byteLength":448,"target":34962,"byteStride":8},{"buffer":0,"byteOffset":1792,"byteLength":168,"target":34963},{"buffer":0,"byteOffset":1960,"byteLength":2016,"target":34962,"byteStride":12},{"buffer":0,"byteOffset":3976,"byteLength":2016,"target":34962,"byteStride":12},{"buffer":0,"byteOffset":5992,"byteLength":1344,"target":34962,"byteStride":8},{"buffer":0,"byteOffset":7336,"byteLength":504,"target":34963},{"buffer":0,"byteOffset":7840,"byteLength":1440,"target":34962,"byteStride":12},{"buffer":0,"byteOffset":9280,"byteLength":1440,"target":34962,"byteStride":12},{"buffer":0,"byteOffset":10720,"byteLength":960,"target":34962,"byteStride":8},{"buffer":0,"byteOffset":11680,"byteLength":360,"target":34963},{"buffer":0,"byteOffset":12040,"byteLength":1440,"target":34962,"byteStride":12},{"buffer":0,"byteOffset":13480,"byteLength":1440,"target":34962,"byteStride":12},{"buffer":0,"byteOffset":14920,"byteLength":960,"target":34962,"byteStride":8},{"buffer":0,"byteOffset":15880,"byteLength":360,"target":34963},{"buffer":0,"byteOffset":16240,"byteLength":1440,"target":34962,"byteStride":12},{"buffer":0,"byteOffset":17680,"byteLength":1440,"target":34962,"byteStride":12},{"buffer":0,"byteOffset":19120,"byteLength":960,"target":34962,"byteStride":8},{"buffer":0,"byteOffset":20080,"byteLength":360,"target":34963},{"buffer":0,"byteOffset":20440,"byteLength":4320,"target":34962,"byteStride":12},{"buffer":0,"byteOffset":24760,"byteLength":4320,"target":34962,"byteStride":12},{"buffer":0,"byteOffset":29080,"byteLength":2880,"target":34962,"byteStride":8},{"buffer":0,"byteOffset":31960,"byteLength":1080,"target":34963}],"buffers":[{"byteLength":33040,"uri":"data:application/octet-stream;base64,"}],"accessors":[{"bufferView":0,"componentType":5126,"count":56,"max":[1.5,0.25,1.5],"min":[-1.5,0,-1.5],"type":"VEC3"},{"bufferView":1,"componentType":5126,"count":56,"max":[1,1,1],"min":[-1,-1,-1],"type":"VEC3"},{"bufferView":2,"componentType":5126,"count":56,"max":[0.62890625,0.47265625],"min":[0,0],"type":"VEC2"},{"bufferView":3,"componentType":5123,"count":84,"max":[55],"min":[0],"type":"SCALAR"},{"bufferView":4,"componentType":5126,"count":168,"max":[1.5,1.5,-1.125],"min":[-1.5,-1.5,-1.1875],"type":"VEC3"},{"bufferView":5,"componentType":5126,"count":168,"max":[1,1,1],"min":[-1,-1,-1],"type":"VEC3"},{"bufferView":6,"componentType":5126,"count":168,"max":[0.66015625,0.578125],"min":[0,0],"type":"VEC2"},{"bufferView":7,"componentType":5123,"count":252,"max":[167],"min":[0],"type":"SCALAR"},{"bufferView":8,"componentType":5126,"count":120,"max":[0.375,1.171875,0.4375],"min":[-6.591949208711867e-17,1.125,-0.4375],"type":"VEC3"},{"bufferView":9,"componentType":5126,"count":120,"max":[1,1,1],"min":[-1,-1,-1],"type":"VEC3"},{"bufferView":10,"componentType":5126,"count":120,"max":[0.55859375,0.56640625],"min":[0.28515625,0.21484375],"type":"VEC2"},{"bufferView":11,"componentType":5123,"count":180,"max":[119],"min":[0],"type":"SCALAR"},{"bufferView":12,"componentType":5126,"count":120,"max":[1.125,1.171875,0.4375],"min":[0.75,1.125,-0.4375],"type":"VEC3"},{"bufferView":13,"componentType":5126,"count":120,"max":[1,1,1],"min":[-1,-1,-1],"type":"VEC3"},{"bufferView":14,"componentType":5126,"count":120,"max":[0.56640625,0.5703125],"min":[0.19140625,0.37890625],"type":"VEC2"},{"bufferView":15,"componentType":5123,"count":180,"max":[119],"min":[0],"type":"SCALAR"},{"bufferView":16,"componentType":5126,"count":120,"max":[-0.375,1.171875,0.4375],"min":[-0.75,1.125,-0.4375],"type":"VEC3"},{"bufferView":17,"componentType":5126,"count":120,"max":[1,1,1],"min":[-1,-1,-1],"type":"VEC3"},{"bufferView":18,"componentType":5126,"count":120,"max":[0.578125,0.57421875],"min":[0,0.21484375],"type":"VEC2"},{"bufferView":19,"componentType":5123,"count":180,"max":[119],"min":[0],"type":"SCALAR"},{"bufferView":20,"componentType":5126,"count":360,"max":[1.5,1.125,1.5],"min":[-1.5,0.25,-1.5],"type":"VEC3"},{"bufferView":21,"componentType":5126,"count":360,"max":[1,1,1],"min":[-1,-1,-1],"type":"VEC3"},{"bufferView":22,"componentType":5126,"count":360,"max":[0.66015625,0.6640625],"min":[0,0],"type":"VEC2"},{"bufferView":23,"componentType":5123,"count":540,"max":[359],"min":[0],"type":"SCALAR"}],"materials":[{"pbrMetallicRoughness":{"metallicFactor":0,"roughnessFactor":1,"baseColorTexture":{"index":0}},"alphaMode":"MASK","alphaCutoff":0.05,"doubleSided":true}],"textures":[{"sampler":0,"source":0,"name":"textura nova.png"}],"samplers":[{"magFilter":9728,"minFilter":9728,"wrapS":33071,"wrapT":33071}],"images":[{"mimeType":"image/png","uri":"data:image/png;base64,"}],"meshes":[{"primitives":[{"mode":4,"attributes":{"POSITION":0,"NORMAL":1,"TEXCOORD_0":2},"indices":3,"material":0}]},{"primitives":[{"mode":4,"attributes":{"POSITION":4,"NORMAL":5,"TEXCOORD_0":6},"indices":7,"material":0}]},{"primitives":[{"mode":4,"attributes":{"POSITION":8,"NORMAL":9,"TEXCOORD_0":10},"indices":11,"material":0}]},{"primitives":[{"mode":4,"attributes":{"POSITION":12,"NORMAL":13,"TEXCOORD_0":14},"indices":15,"material":0}]},{"primitives":[{"mode":4,"attributes":{"POSITION":16,"NORMAL":17,"TEXCOORD_0":18},"indices":19,"material":0}]},{"primitives":[{"mode":4,"attributes":{"POSITION":20,"NORMAL":21,"TEXCOORD_0":22},"indices":23,"material":0}]}]}