{"asset":{"version":"2.0","generator":"Blockbench 4.8.3 glTF exporter"},"scenes":[{"nodes":[6],"name":"blockbench_export"}],"scene":0,"nodes":[{"name":"Ground","mesh":0},{"rotation":[0.49999998352056946,-0.49999998489937975,0.5000000164794346,0.5000000151006153],"name":"Ceiling","mesh":1},{"rotation":[0,-0.7071067811865475,0,0.7071067811865476],"name":"LampGrid1","mesh":2},{"rotation":[0,-0.7071067811865475,0,0.7071067811865476],"name":"LampGrid2","mesh":3},{"rotation":[0,-0.7071067811865475,0,0.7071067811865476],"name":"LampGrid3","mesh":4},{"name":"Walls","mesh":5},{"children":[0,1,2,3,4,5]}],"bufferViews":[{"buffer":0,"byteOffset":0,"byteLength":672,"target":34962,"byteStride":12},{"buffer":0,"byteOffset":672,"byteLength":672,"target":34962,"byteStride":12},{"buffer":0,"byteOffset":1344,"byteLength":448,"target":34962,"byteStride":8},{"buffer":0,"byteOffset":1792,"byteLength":168,"target":34963},{"buffer":0,"byteOffset":1960,"byteLength":1968,"target":34962,"byteStride":12},{"buffer":0,"byteOffset":3928,"byteLength":1968,"target":34962,"byteStride":12},{"buffer":0,"byteOffset":5896,"byteLength":1312,"target":34962,"byteStride":8},{"buffer":0,"byteOffset":7208,"byteLength":492,"target":34963},{"buffer":0,"byteOffset":7700,"byteLength":1440,"target":34962,"byteStride":12},{"buffer":0,"byteOffset":9140,"byteLength":1440,"target":34962,"byteStride":12},{"buffer":0,"byteOffset":10580,"byteLength":960,"target":34962,"byteStride":8},{"buffer":0,"byteOffset":11540,"byteLength":360,"target":34963},{"buffer":0,"byteOffset":11900,"byteLength":1440,"target":34962,"byteStride":12},{"buffer":0,"byteOffset":13340,"byteLength":1440,"target":34962,"byteStride":12},{"buffer":0,"byteOffset":14780,"byteLength":960,"target":34962,"byteStride":8},{"buffer":0,"byteOffset":15740,"byteLength":360,"target":34963},{"buffer":0,"byteOffset":16100,"byteLength":1440,"target":34962,"byteStride":12},{"buffer":0,"byteOffset":17540,"byteLength":1440,"target":34962,"byteStride":12},{"buffer":0,"byteOffset":18980,"byteLength":960,"target":34962,"byteStride":8},{"buffer":0,"byteOffset":19940,"byteLength":360,"target":34963},{"buffer":0,"byteOffset":20300,"byteLength":5760,"target":34962,"byteStride":12},{"buffer":0,"byteOffset":26060,"byteLength":5760,"target":34962,"byteStride":12},{"buffer":0,"byteOffset":31820,"byteLength":3840,"target":34962,"byteStride":8},{"buffer":0,"byteOffset":35660,"byteLength":1440,"target":34963}],"buffers":[{"byteLength":37100,"uri":"data:application/octet-stream;base64,"}],"accessors":[{"bufferView":0,"componentType":5126,"count":56,"max":[1.5,0.25,1.5],"min":[-1.5,0,-1.5],"type":"VEC3"},{"bufferView":1,"componentType":5126,"count":56,"max":[1,1,1],"min":[-1,-1,-1],"type":"VEC3"},{"bufferView":2,"componentType":5126,"count":56,"max":[0.62890625,0.47265625],"min":[0,0],"type":"VEC2"},{"bufferView":3,"componentType":5123,"count":84,"max":[55],"min":[0],"type":"SCALAR"},{"bufferView":4,"componentType":5126,"count":164,"max":[1.5,1.5,-1.125],"min":[-1.5,-1.5,-1.1875],"type":"VEC3"},{"bufferView":5,"componentType":5126,"count":164,"max":[1,1,1],"min":[-1,-1,-1],"type":"VEC3"},{"bufferView":6,"componentType":5126,"count":164,"max":[0.66015625,0.578125],"min":[0,0],"type":"VEC2"},{"bufferView":7,"componentType":5123,"count":246,"max":[163],"min":[0],"type":"SCALAR"},{"bufferView":8,"componentType":5126,"count":120,"max":[0.375,1.171875,0.4375],"min":[-6.591949208711867e-17,1.125,-0.4375],"type":"VEC3"},{"bufferView":9,"componentType":5126,"count":120,"max":[1,1,1],"min":[-1,-1,-1],"type":"VEC3"},{"bufferView":10,"componentType":5126,"count":120,"max":[0.55859375,0.56640625],"min":[0.28515625,0.21484375],"type":"VEC2"},{"bufferView":11,"componentType":5123,"count":180,"max":[119],"min":[0],"type":"SCALAR"},{"bufferView":12,"componentType":5126,"count":120,"max":[1.125,1.171875,0.4375],"min":[0.75,1.125,-0.4375],"type":"VEC3"},{"bufferView":13,"componentType":5126,"count":120,"max":[1,1,1],"min":[-1,-1,-1],"type":"VEC3"},{"bufferView":14,"componentType":5126,"count":120,"max":[0.56640625,0.5703125],"min":[0.19140625,0.37890625],"type":"VEC2"},{"bufferView":15,"componentType":5123,"count":180,"max":[119],"min":[0],"type":"SCALAR"},{"bufferView":16,"componentType":5126,"count":120,"max":[-0.375,1.171875,0.4375],"min":[-0.75,1.125,-0.4375],"type":"VEC3"},{"bufferView":17,"componentType":5126,"count":120,"max":[1,1,1],"min":[-1,-1,-1],"type":"VEC3"},{"bufferView":18,"componentType":5126,"count":120,"max":[0.578125,0.57421875],"min":[0,0.21484375],"type":"VEC2"},{"bufferView":19,"componentType":5123,"count":180,"max":[119],"min":[0],"type":"SCALAR"},{"bufferView":20,"componentType":5126,"count":480,"max":[1.5,1.15625,1.5],"min":[-1.5,0.21875,-1.5],"type":"VEC3"},{"bufferView":21,"componentType":5126,"count":480,"max":[1,1,1],"min":[-1,-1,-1],"type":"VEC3"},{"bufferView":22,"componentType":5126,"count":480,"max":[0.66015625,0.6640625],"min":[0,0],"type":"VEC2"},{"bufferView":23,"componentType":5123,"count":720,"max":[479],"min":[0],"type":"SCALAR"}],"materials":[{"pbrMetallicRoughness":{"metallicFactor":0,"roughnessFactor":1,"baseColorTexture":{"index":0}},"alphaMode":"MASK","alphaCutoff":0.05,"doubleSided":true}],"textures":[{"sampler":0,"source":0,"name":"textura nova.png"}],"samplers":[{"magFilter":9728,"minFilter":9728,"wrapS":33071,"wrapT":33071}],"images":[{"mimeType":"image/png","uri":"data:image/png;base64,"}],"meshes":[{"primitives":[{"mode":4,"attributes":{"POSITION":0,"NORMAL":1,"TEXCOORD_0":2},"indices":3,"material":0}]},{"primitives":[{"mode":4,"attributes":{"POSITION":4,"NORMAL":5,"TEXCOORD_0":6},"indices":7,"material":0}]},{"primitives":[{"mode":4,"attributes":{"POSITION":8,"NORMAL":9,"TEXCOORD_0":10},"indices":11,"material":0}]},{"primitives":[{"mode":4,"attributes":{"POSITION":12,"NORMAL":13,"TEXCOORD_0":14},"indices":15,"material":0}]},{"primitives":[{"mode":4,"attributes":{"POSITION":16,"NORMAL":17,"TEXCOORD_0":18},"indices":19,"material":0}]},{"primitives":[{"mode":4,"attributes":{"POSITION":20,"NORMAL":21,"TEXCOORD_0":22},"indices":23,"material":0}]}]}