{"asset":{"version":"2.0","generator":"Blockbench 4.8.3 glTF exporter"},"scenes":[{"nodes":[6],"name":"blockbench_export"}],"scene":0,"nodes":[{"name":"cylinder","mesh":0},{"translation":[0,0.043750000000000004,0],"name":"cylinder","mesh":1},{"rotation":[-0.28401534470392265,0,0,0.958819734868193],"translation":[0,0.043750000000000004,0],"name":"plane","mesh":2},{"rotation":[-0.013280060587299919,-0.9966800944041303,-0.0784404245877259,0.01730691191023793],"translation":[0,0.043750000000000004,0],"name":"plane","mesh":3},{"rotation":[-0.08966459509750352,0.6286096893316242,0.04518881845222625,0.7712120911599424],"translation":[0,0.043750000000000004,0],"name":"plane","mesh":4},{"rotation":[0.018023710176275465,-0.7154842913625985,0.007039041896295339,0.698360814030988],"translation":[0,0.043750000000000004,0],"name":"plane","mesh":5},{"children":[0,1,2,3,4,5]}],"bufferViews":[{"buffer":0,"byteOffset":0,"byteLength":2880,"target":34962,"byteStride":12},{"buffer":0,"byteOffset":2880,"byteLength":2880,"target":34962,"byteStride":12},{"buffer":0,"byteOffset":5760,"byteLength":1920,"target":34962,"byteStride":8},{"buffer":0,"byteOffset":7680,"byteLength":672,"target":34963},{"buffer":0,"byteOffset":8352,"byteLength":2496,"target":34962,"byteStride":12},{"buffer":0,"byteOffset":10848,"byteLength":2496,"target":34962,"byteStride":12},{"buffer":0,"byteOffset":13344,"byteLength":1664,"target":34962,"byteStride":8},{"buffer":0,"byteOffset":15008,"byteLength":576,"target":34963},{"buffer":0,"byteOffset":15584,"byteLength":768,"target":34962,"byteStride":12},{"buffer":0,"byteOffset":16352,"byteLength":768,"target":34962,"byteStride":12},{"buffer":0,"byteOffset":17120,"byteLength":512,"target":34962,"byteStride":8},{"buffer":0,"byteOffset":17632,"byteLength":192,"target":34963},{"buffer":0,"byteOffset":17824,"byteLength":768,"target":34962,"byteStride":12},{"buffer":0,"byteOffset":18592,"byteLength":768,"target":34962,"byteStride":12},{"buffer":0,"byteOffset":19360,"byteLength":512,"target":34962,"byteStride":8},{"buffer":0,"byteOffset":19872,"byteLength":192,"target":34963},{"buffer":0,"byteOffset":20064,"byteLength":768,"target":34962,"byteStride":12},{"buffer":0,"byteOffset":20832,"byteLength":768,"target":34962,"byteStride":12},{"buffer":0,"byteOffset":21600,"byteLength":512,"target":34962,"byteStride":8},{"buffer":0,"byteOffset":22112,"byteLength":192,"target":34963},{"buffer":0,"byteOffset":22304,"byteLength":768,"target":34962,"byteStride":12},{"buffer":0,"byteOffset":23072,"byteLength":768,"target":34962,"byteStride":12},{"buffer":0,"byteOffset":23840,"byteLength":512,"target":34962,"byteStride":8},{"buffer":0,"byteOffset":24352,"byteLength":192,"target":34963}],"buffers":[{"byteLength":24544,"uri":"data:application/octet-stream;base64,"}],"accessors":[{"bufferView":0,"componentType":5126,"count":240,"max":[0.08124999701976776,0.13750000298023224,0.08124999701976776],"min":[-0.08124999701976776,-6.938893903907228e-18,-0.08124999701976776],"type":"VEC3"},{"bufferView":1,"componentType":5126,"count":240,"max":[1,1,1],"min":[-1,-1,-1],"type":"VEC3"},{"bufferView":2,"componentType":5126,"count":240,"max":[0.7494249939918518,0.75],"min":[0.0005750000127591193,0],"type":"VEC2"},{"bufferView":3,"componentType":5123,"count":336,"max":[239],"min":[0],"type":"SCALAR"},{"bufferView":4,"componentType":5126,"count":208,"max":[0.0062500000931322575,0.18125000596046448,0.0062500000931322575],"min":[-0.0062500000931322575,0.07500000298023224,-0.0062500000931322575],"type":"VEC3"},{"bufferView":5,"componentType":5126,"count":208,"max":[1,1,1],"min":[-1,-1,-1],"type":"VEC3"},{"bufferView":6,"componentType":5126,"count":208,"max":[0.8222871422767639,0.918931245803833],"min":[0.010449999943375587,0],"type":"VEC2"},{"bufferView":7,"componentType":5123,"count":288,"max":[207],"min":[0],"type":"SCALAR"},{"bufferView":8,"componentType":5126,"count":64,"max":[0.10000000149011612,0.16886191070079803,0.3820439875125885],"min":[-0.10000000149011612,-0.01642495207488537,0.0791078433394432],"type":"VEC3"},{"bufferView":9,"componentType":5126,"count":64,"max":[0.9999996423721313,0.9801093339920044,0.9550511837005615],"min":[-0.2958937883377075,0.000056276621762663126,-0.509171724319458],"type":"VEC3"},{"bufferView":10,"componentType":5126,"count":64,"max":[0.8939341306686401,0.8068125247955322],"min":[0,0],"type":"VEC2"},{"bufferView":11,"componentType":5123,"count":96,"max":[63],"min":[0],"type":"SCALAR"},{"bufferView":12,"componentType":5126,"count":64,"max":[0.08124999701976776,0.17522382736206055,0.3392740488052368],"min":[-0.08124999701976776,0.05536423251032829,0.029107842594385147],"type":"VEC3"},{"bufferView":13,"componentType":5126,"count":64,"max":[0.9999991655349731,0.99358731508255,0.8442214727401733],"min":[-0.20305268466472626,0.0006825131713412702,-0.28465741872787476],"type":"VEC3"},{"bufferView":14,"componentType":5126,"count":64,"max":[0.8939341306686401,0.8068125247955322],"min":[0,0],"type":"VEC2"},{"bufferView":15,"componentType":5123,"count":96,"max":[63],"min":[0],"type":"SCALAR"},{"bufferView":16,"componentType":5126,"count":64,"max":[0.06875000149011612,0.19406786561012268,0.37584367394447327],"min":[-0.06875000149011612,0.1375545859336853,0.022857841104269028],"type":"VEC3"},{"bufferView":17,"componentType":5126,"count":64,"max":[0.9999997615814209,0.9721270203590393,0.5752359628677368],"min":[-0.3504961431026459,0.0005646380595862865,-0.4953511655330658],"type":"VEC3"},{"bufferView":18,"componentType":5126,"count":64,"max":[0.8939341306686401,0.8068125247955322],"min":[0,0],"type":"VEC2"},{"bufferView":19,"componentType":5123,"count":96,"max":[63],"min":[0],"type":"SCALAR"},{"bufferView":20,"componentType":5126,"count":64,"max":[0.06875000149011612,0.2003178745508194,0.3508436679840088],"min":[-0.06875000149011612,0.14380457997322083,-0.0021421583369374275],"type":"VEC3"},{"bufferView":21,"componentType":5126,"count":64,"max":[0.9999997615814209,0.9721270203590393,0.5752359628677368],"min":[-0.3504961431026459,0.0005646380595862865,-0.4953511655330658],"type":"VEC3"},{"bufferView":22,"componentType":5126,"count":64,"max":[0.8939341306686401,0.8068125247955322],"min":[0,0],"type":"VEC2"},{"bufferView":23,"componentType":5123,"count":96,"max":[63],"min":[0],"type":"SCALAR"}],"materials":[{"pbrMetallicRoughness":{"metallicFactor":0,"roughnessFactor":1,"baseColorTexture":{"index":0}},"alphaMode":"MASK","alphaCutoff":0.05,"doubleSided":true},{"pbrMetallicRoughness":{"metallicFactor":0,"roughnessFactor":1,"baseColorTexture":{"index":1}},"alphaMode":"MASK","alphaCutoff":0.05,"doubleSided":true}],"textures":[{"sampler":0,"source":0,"name":"texture_pote"},{"sampler":1,"source":1,"name":"texture_planta"}],"samplers":[{"magFilter":9728,"minFilter":9728,"wrapS":33071,"wrapT":33071},{"magFilter":9728,"minFilter":9728,"wrapS":33071,"wrapT":33071}],"images":[{"mimeType":"image/png","uri":"data:image/png;base64,"},{"mimeType":"image/png","uri":"data:image/png;base64,"}],"meshes":[{"primitives":[{"mode":4,"attributes":{"POSITION":0,"NORMAL":1,"TEXCOORD_0":2},"indices":3,"material":0}]},{"primitives":[{"mode":4,"attributes":{"POSITION":4,"NORMAL":5,"TEXCOORD_0":6},"indices":7,"material":0}]},{"primitives":[{"mode":4,"attributes":{"POSITION":8,"NORMAL":9,"TEXCOORD_0":10},"indices":11,"material":1}]},{"primitives":[{"mode":4,"attributes":{"POSITION":12,"NORMAL":13,"TEXCOORD_0":14},"indices":15,"material":1}]},{"primitives":[{"mode":4,"attributes":{"POSITION":16,"NORMAL":17,"TEXCOORD_0":18},"indices":19,"material":1}]},{"primitives":[{"mode":4,"attributes":{"POSITION":20,"NORMAL":21,"TEXCOORD_0":22},"indices":23,"material":1}]}]}