{"asset":{"version":"2.0","generator":"Blockbench 4.8.3 glTF exporter"},"scenes":[{"nodes":[4],"name":"blockbench_export"}],"scene":0,"nodes":[{"name":"cuboid","mesh":0},{"name":"cuboid","mesh":1},{"name":"cuboid","mesh":2},{"rotation":[-0.40274668985873724,0,0,0.9153114791194471],"name":"cuboid","mesh":3},{"children":[0,1,2,3]}],"bufferViews":[{"buffer":0,"byteOffset":0,"byteLength":288,"target":34962,"byteStride":12},{"buffer":0,"byteOffset":288,"byteLength":288,"target":34962,"byteStride":12},{"buffer":0,"byteOffset":576,"byteLength":192,"target":34962,"byteStride":8},{"buffer":0,"byteOffset":768,"byteLength":72,"target":34963},{"buffer":0,"byteOffset":840,"byteLength":288,"target":34962,"byteStride":12},{"buffer":0,"byteOffset":1128,"byteLength":288,"target":34962,"byteStride":12},{"buffer":0,"byteOffset":1416,"byteLength":192,"target":34962,"byteStride":8},{"buffer":0,"byteOffset":1608,"byteLength":72,"target":34963},{"buffer":0,"byteOffset":1680,"byteLength":1440,"target":34962,"byteStride":12},{"buffer":0,"byteOffset":3120,"byteLength":1440,"target":34962,"byteStride":12},{"buffer":0,"byteOffset":4560,"byteLength":960,"target":34962,"byteStride":8},{"buffer":0,"byteOffset":5520,"byteLength":360,"target":34963},{"buffer":0,"byteOffset":5880,"byteLength":1056,"target":34962,"byteStride":12},{"buffer":0,"byteOffset":6936,"byteLength":1056,"target":34962,"byteStride":12},{"buffer":0,"byteOffset":7992,"byteLength":704,"target":34962,"byteStride":8},{"buffer":0,"byteOffset":8696,"byteLength":264,"target":34963}],"buffers":[{"byteLength":8960,"uri":"data:application/octet-stream;base64,"}],"accessors":[{"bufferView":0,"componentType":5126,"count":24,"max":[0.125,0.01875000074505806,0.25],"min":[-0.3125,-1.734723475976807e-18,-0.0625],"type":"VEC3"},{"bufferView":1,"componentType":5126,"count":24,"max":[1,1,1],"min":[-1,-1,-1],"type":"VEC3"},{"bufferView":2,"componentType":5126,"count":24,"max":[0.78125,0.65625],"min":[0,0.0625],"type":"VEC2"},{"bufferView":3,"componentType":5123,"count":36,"max":[23],"min":[0],"type":"SCALAR"},{"bufferView":4,"componentType":5126,"count":24,"max":[0.140625,0.06875000149011612,0.265625],"min":[-0.328125,0.01875000074505806,-0.078125],"type":"VEC3"},{"bufferView":5,"componentType":5126,"count":24,"max":[1,1,1],"min":[-1,-1,-1],"type":"VEC3"},{"bufferView":6,"componentType":5126,"count":24,"max":[0.8125,0.65625],"min":[0,0],"type":"VEC2"},{"bufferView":7,"componentType":5123,"count":36,"max":[23],"min":[0],"type":"SCALAR"},{"bufferView":8,"componentType":5126,"count":120,"max":[0.125,0.08749999850988388,0.265625],"min":[-0.3125,0.0625,-0.0625],"type":"VEC3"},{"bufferView":9,"componentType":5126,"count":120,"max":[1,1,1],"min":[-0.8944271802902222,-1,-0.8944271802902222],"type":"VEC3"},{"bufferView":10,"componentType":5126,"count":120,"max":[0.8828125,0.765625],"min":[0.0033818779047578573,0.007206618785858154],"type":"VEC2"},{"bufferView":11,"componentType":5123,"count":180,"max":[119],"min":[0],"type":"SCALAR"},{"bufferView":12,"componentType":5126,"count":88,"max":[0.125,-0.109375,0.34375],"min":[-0.3125,-0.140625,0.171875],"type":"VEC3"},{"bufferView":13,"componentType":5126,"count":88,"max":[0.9701424837112427,1,1],"min":[-0.9701424837112427,-1,-1],"type":"VEC3"},{"bufferView":14,"componentType":5126,"count":88,"max":[0.8125,0.78125],"min":[0,0.21875],"type":"VEC2"},{"bufferView":15,"componentType":5123,"count":132,"max":[87],"min":[0],"type":"SCALAR"}],"materials":[{"pbrMetallicRoughness":{"metallicFactor":0,"roughnessFactor":1,"baseColorTexture":{"index":0}},"alphaMode":"MASK","alphaCutoff":0.05,"doubleSided":true}],"textures":[{"sampler":0,"source":0,"name":"texture"}],"samplers":[{"magFilter":9728,"minFilter":9728,"wrapS":33071,"wrapT":33071}],"images":[{"mimeType":"image/png","uri":"data:image/png;base64,"}],"meshes":[{"primitives":[{"mode":4,"attributes":{"POSITION":0,"NORMAL":1,"TEXCOORD_0":2},"indices":3,"material":0}]},{"primitives":[{"mode":4,"attributes":{"POSITION":4,"NORMAL":5,"TEXCOORD_0":6},"indices":7,"material":0}]},{"primitives":[{"mode":4,"attributes":{"POSITION":8,"NORMAL":9,"TEXCOORD_0":10},"indices":11,"material":0}]},{"primitives":[{"mode":4,"attributes":{"POSITION":12,"NORMAL":13,"TEXCOORD_0":14},"indices":15,"material":0}]}]}